<?xml version="1.0" standalone="no"?>
<!DOCTYPE svg PUBLIC "-//W3C//DTD SVG 20010904//EN"
 "http://www.w3.org/TR/2001/REC-SVG-20010904/DTD/svg10.dtd">
<svg version="1.0" xmlns="http://www.w3.org/2000/svg"
 width="734.000000pt" height="490.000000pt" viewBox="0 0 734.000000 490.000000"
 preserveAspectRatio="xMidYMid meet">

<g transform="translate(0.000000,490.000000) scale(0.100000,-0.100000)"
fill="#1976d2" stroke="none">
<path d="M3400 3614 c-380 -35 -601 -78 -897 -175 -770 -251 -1432 -752 -1877
-1419 -275 -411 -452 -840 -550 -1330 -32 -160 -66 -474 -66 -612 l0 -68 1024
0 1023 0 12 118 c39 386 175 690 425 950 223 232 455 367 761 443 365 90 748
48 1079 -120 216 -110 270 -157 1111 -980 l420 -411 733 0 732 0 0 718 0 718
-522 509 c-606 593 -753 733 -863 825 -530 442 -1139 708 -1860 810 -145 21
-562 35 -685 24z m-1704 -1345 c337 -47 579 -338 561 -674 -15 -269 -181 -490
-439 -583 -64 -23 -88 -26 -198 -27 -140 0 -187 10 -300 64 -58 27 -95 55
-161 121 -140 139 -193 267 -193 465 0 97 4 121 31 196 83 239 279 401 528
439 74 11 86 11 171 -1z"/>
<path d="M1426 2019 c-54 -13 -98 -42 -145 -95 -128 -146 -75 -384 103 -465
58 -26 153 -25 218 3 l51 22 78 -82 c81 -86 110 -99 143 -66 32 31 19 61 -64
149 l-79 85 21 46 c27 63 28 171 0 235 -23 53 -16 69 30 69 16 0 31 7 34 15 4
9 19 15 40 15 19 0 34 5 34 10 0 6 -15 10 -34 10 -21 0 -36 6 -40 15 -7 20
-62 20 -70 -1 -3 -9 -6 -26 -6 -39 0 -37 -18 -39 -46 -6 -54 64 -181 102 -268
80z m179 -31 c44 -23 102 -83 126 -131 30 -59 36 -151 14 -218 -26 -77 -103
-152 -179 -174 -217 -63 -409 166 -321 381 20 50 85 115 140 141 42 20 62 23
120 20 39 -2 84 -11 100 -19z m195 -14 c11 -12 11 -18 -2 -31 -19 -18 -38 -10
-38 16 0 33 20 40 40 15z m-57 -442 c16 -17 15 -20 -13 -47 -29 -28 -30 -28
-50 -10 -19 18 -19 18 8 45 33 34 35 34 55 12z m79 -79 c26 -27 47 -55 48 -63
5 -34 -1 -49 -21 -55 -17 -6 -33 5 -80 51 l-59 58 27 28 c15 15 29 28 33 28 3
0 27 -21 52 -47z"/>
<path d="M1392 1954 c-85 -42 -134 -124 -134 -224 0 -140 98 -242 232 -242
179 0 294 189 214 350 -63 126 -194 175 -312 116z m182 -8 c18 -7 49 -28 70
-46 35 -31 36 -34 20 -51 -9 -11 -29 -19 -44 -19 -27 0 -40 -15 -40 -46 0 -9
-14 -33 -32 -55 -24 -30 -38 -39 -62 -39 -34 0 -88 44 -79 65 7 21 -16 55 -37
55 -10 0 -25 -7 -34 -15 -8 -8 -26 -15 -40 -15 l-26 0 15 37 c39 93 110 143
203 143 29 0 67 -6 86 -14z m136 -207 c0 -37 -7 -82 -15 -102 -19 -45 -68 -93
-120 -118 -137 -64 -305 50 -305 209 0 26 4 32 21 32 11 0 32 -9 46 -19 13
-11 31 -17 40 -14 19 7 62 -43 63 -74 0 -22 24 -53 40 -53 16 0 40 31 40 51 0
34 59 99 90 99 33 0 50 17 50 50 0 14 5 31 12 38 20 20 37 -25 38 -99z m-73
70 c16 -16 5 -39 -17 -39 -23 0 -32 13 -24 34 7 19 25 21 41 5z m-249 -43 c-4
-25 -36 -34 -44 -12 -8 21 13 46 32 39 8 -3 14 -15 12 -27z m116 -105 c9 -13
-4 -41 -18 -41 -18 0 -35 21 -29 36 6 16 39 19 47 5z"/>
</g>
</svg>
